<svg width="512" height="512" viewBox="0 0 512 512" fill="none" xmlns="http://www.w3.org/2000/svg">
<g clip-path="url(#clip0)">
<mask id="mask0" mask-type="alpha" maskUnits="userSpaceOnUse" x="0" y="0" width="512" height="545">
<path fill-rule="evenodd" clip-rule="evenodd" d="M213.452 454.207C325.76 480.442 438.072 410.666 464.307 298.358C490.542 186.05 420.766 73.7385 308.458 47.5032C196.15 21.2679 83.8385 91.0437 57.6032 203.352C43.6065 263.269 56.9374 323.187 89.4751 370.035L63.3402 464.734L167.714 437.763C181.97 444.859 197.27 450.427 213.452 454.207Z" fill="url(#paint0_linear)"/>
</mask>
<g mask="url(#mask0)">
<path fill-rule="evenodd" clip-rule="evenodd" d="M213.641 454.525C325.949 480.761 438.261 410.985 464.496 298.677C490.732 186.369 420.956 74.057 308.648 47.8217C196.34 21.5864 84.028 91.3622 57.7927 203.67C43.7957 263.588 57.1273 323.508 89.6661 370.356L63.5318 465.052L167.904 438.082C182.16 445.178 197.459 450.745 213.641 454.525Z" fill="url(#paint1_linear)"/>
<circle cx="344.245" cy="243.976" r="22.0373" fill="#FDD7F0"/>
<mask id="mask1" mask-type="alpha" maskUnits="userSpaceOnUse" x="322" y="221" width="45" height="46">
<circle cx="344.245" cy="243.976" r="22.0373" fill="#9B0769"/>
</mask>
<g mask="url(#mask1)">
<circle cx="361.874" cy="243.976" r="22.0373" fill="white"/>
</g>
<circle cx="256.097" cy="243.976" r="22.0373" fill="#FDD7F0"/>
<mask id="mask2" mask-type="alpha" maskUnits="userSpaceOnUse" x="234" y="221" width="45" height="46">
<circle cx="256.097" cy="243.976" r="22.0373" fill="#9B0769"/>
</mask>
<g mask="url(#mask2)">
<circle cx="273.727" cy="243.976" r="22.0373" fill="white"/>
</g>
<circle cx="167.947" cy="243.976" r="22.0373" fill="#FDD7F0"/>
<mask id="mask3" mask-type="alpha" maskUnits="userSpaceOnUse" x="145" y="221" width="45" height="46">
<circle cx="167.947" cy="243.976" r="22.0373" fill="#9B0769"/>
</mask>
<g mask="url(#mask3)">
<circle cx="176.762" cy="243.976" r="22.0373" fill="white"/>
</g>
<path d="M164.571 360.742L45.8984 483.072C67.306 490.486 111.029 505.314 114.659 505.314C119.196 505.314 234.378 441.006 202.267 427.468C176.578 416.637 166.432 378.471 164.571 360.742Z" fill="url(#paint2_linear)"/>
<path opacity="0.6" d="M47.7504 295.69C62.0339 332.101 70.9304 350.578 92.234 373.08L66.1773 466.986C84.7455 448.331 132.141 388.599 128.979 384.379C121.619 348.809 119.057 340.548 113.816 318.518C102.572 271.245 108.013 209.39 128.979 173.901C149.944 138.412 181.954 101.608 226.994 87.3658C272.035 73.1234 296.597 77.8237 391.631 72.9749C326.318 44.6849 242.74 18.6032 189.086 35.5694C135.431 52.5356 88.0873 113.188 63.1121 155.464C38.1369 197.74 32.7081 247.297 47.7504 295.69Z" fill="url(#paint3_linear)"/>
<path opacity="0.8" d="M498.243 356.806C473.474 395.106 458.908 414.25 428.476 435.714L440.842 545.616C422.151 521.414 296.382 460.607 301.08 456.434C323.742 444.81 403.865 362.52 416.239 340.152C439.862 296.835 442.853 249.383 424.701 205.883C406.549 162.383 375.279 115.455 323.593 91.5201C271.907 67.5854 241.17 68.5121 126.955 46.2689C211.923 26.0985 318.087 44.1078 379.658 72.6201C441.229 101.132 486.7 145.039 508.323 196.858C529.946 248.678 526.384 305.204 498.243 356.806Z" fill="url(#paint4_linear)"/>
<circle cx="375.104" cy="78.375" r="48.4821" transform="rotate(37.6084 375.104 78.375)" fill="white"/>
</g>
<circle cx="380.711" cy="80.0945" r="30.8523" transform="rotate(37.6084 380.711 80.0945)" fill="url(#paint5_linear)"/>
<circle cx="411.962" cy="40.373" r="8.81494" transform="rotate(37.6084 411.962 40.373)" fill="url(#paint6_linear)"/>
</g>
<defs>
<linearGradient id="paint0_linear" x1="52.5535" y1="224.969" x2="459.257" y2="319.975" gradientUnits="userSpaceOnUse">
<stop stop-color="#AA076B"/>
<stop offset="1" stop-color="#61045F"/>
</linearGradient>
<linearGradient id="paint1_linear" x1="52.743" y1="225.287" x2="459.447" y2="320.294" gradientUnits="userSpaceOnUse">
<stop stop-color="#AA076B"/>
<stop offset="1" stop-color="#61045F"/>
</linearGradient>
<linearGradient id="paint2_linear" x1="45.8984" y1="484.039" x2="153.334" y2="436.87" gradientUnits="userSpaceOnUse">
<stop stop-color="#D971BD"/>
<stop offset="1" stop-color="#940768" stop-opacity="0"/>
</linearGradient>
<linearGradient id="paint3_linear" x1="337.558" y1="33.485" x2="169.981" y2="377.481" gradientUnits="userSpaceOnUse">
<stop stop-color="#670460"/>
<stop offset="1" stop-color="#61045F" stop-opacity="0"/>
</linearGradient>
<linearGradient id="paint4_linear" x1="159.841" y1="0.0863394" x2="271.052" y2="490.183" gradientUnits="userSpaceOnUse">
<stop stop-color="#930667"/>
<stop offset="1" stop-color="#61045F" stop-opacity="0"/>
</linearGradient>
<linearGradient id="paint5_linear" x1="349.859" y1="80.0945" x2="442.992" y2="75.2884" gradientUnits="userSpaceOnUse">
<stop stop-color="#AA076B"/>
<stop offset="1" stop-color="#61045F"/>
</linearGradient>
<linearGradient id="paint6_linear" x1="403.147" y1="40.373" x2="429.757" y2="38.9999" gradientUnits="userSpaceOnUse">
<stop stop-color="#AA076B"/>
<stop offset="1" stop-color="#61045F"/>
</linearGradient>
<clipPath id="clip0">
<rect width="512" height="512" fill="white"/>
</clipPath>
</defs>
</svg>
