<svg width="32" height="32" viewBox="0 0 32 32" fill="none" xmlns="http://www.w3.org/2000/svg">
<g clip-path="url(#clip0)">
<mask id="mask0" mask-type="alpha" maskUnits="userSpaceOnUse" x="3" y="2" width="27" height="27">
<path fill-rule="evenodd" clip-rule="evenodd" d="M13.3502 28.338C20.3754 29.9781 27.3978 25.6288 29.0352 18.6235C30.6727 11.6182 26.305 4.60978 19.2798 2.96967C12.2546 1.32957 5.23217 5.6789 3.59474 12.6842C2.72249 16.4159 3.55427 20.1484 5.58406 23.07L3.94673 28.9844L10.4734 27.3031C11.3697 27.7499 12.332 28.1003 13.3502 28.338Z" fill="url(#paint0_linear)"/>
</mask>
<g mask="url(#mask0)">
<path fill-rule="evenodd" clip-rule="evenodd" d="M13.3619 28.358C20.3871 29.9981 27.4095 25.6488 29.0469 18.6435C30.6844 11.6382 26.3167 4.62973 19.2915 2.98963C12.2663 1.34953 5.24389 5.69886 3.60646 12.7041C2.73421 16.4358 3.56598 20.1684 5.59576 23.0899L3.95846 29.0042L10.485 27.3229C11.3813 27.7698 12.3437 28.1203 13.3619 28.358Z" fill="url(#paint1_linear)"/>
<ellipse cx="21.5203" cy="15.2162" rx="1.37868" ry="1.37441" fill="#FDD7F0"/>
<mask id="mask1" mask-type="alpha" maskUnits="userSpaceOnUse" x="20" y="13" width="3" height="4">
<ellipse cx="21.5203" cy="15.2162" rx="1.37868" ry="1.37441" fill="#9B0769"/>
</mask>
<g mask="url(#mask1)">
<ellipse cx="22.6228" cy="15.2162" rx="1.37868" ry="1.37441" fill="white"/>
</g>
<ellipse cx="16.0056" cy="15.2162" rx="1.37868" ry="1.37441" fill="#FDD7F0"/>
<mask id="mask2" mask-type="alpha" maskUnits="userSpaceOnUse" x="14" y="13" width="4" height="4">
<ellipse cx="16.0056" cy="15.2162" rx="1.37868" ry="1.37441" fill="#9B0769"/>
</mask>
<g mask="url(#mask2)">
<ellipse cx="17.1062" cy="15.2162" rx="1.37868" ry="1.37441" fill="white"/>
</g>
<ellipse cx="10.49" cy="15.2162" rx="1.37868" ry="1.37441" fill="#FDD7F0"/>
<mask id="mask3" mask-type="alpha" maskUnits="userSpaceOnUse" x="9" y="13" width="3" height="4">
<ellipse cx="10.49" cy="15.2162" rx="1.37868" ry="1.37441" fill="#9B0769"/>
</mask>
<g mask="url(#mask3)">
<ellipse cx="11.0408" cy="15.2162" rx="1.37868" ry="1.37441" fill="white"/>
</g>
<path d="M10.2797 22.4986L2.85547 30.128C4.19475 30.5904 6.93008 31.5152 7.15718 31.5152C7.44104 31.5152 14.6469 27.5045 12.638 26.6601C11.0309 25.9846 10.3962 23.6043 10.2797 22.4986Z" fill="url(#paint2_linear)"/>
<path opacity="0.6" d="M2.96933 18.4414C3.86292 20.7123 4.41949 21.8646 5.75227 23.268L4.12213 29.1248C5.28377 27.9613 8.24889 24.2359 8.05104 23.9727C7.5906 21.7544 7.43031 21.2391 7.10248 19.8652C6.39901 16.9169 6.73942 13.0591 8.05104 10.8458C9.36266 8.63244 11.3652 6.33704 14.183 5.44879C17.0008 4.56053 18.5374 4.85367 24.4828 4.55127C20.3968 2.78689 15.1681 1.16024 11.8114 2.21838C8.45472 3.27651 5.49284 7.05924 3.93037 9.69589C2.3679 12.3325 2.02826 15.4233 2.96933 18.4414Z" fill="url(#paint3_linear)"/>
<path opacity="0.8" d="M31.1538 22.2531C29.6042 24.6418 28.6929 25.8358 26.7891 27.1744L27.5627 34.0287C26.3934 32.5194 18.5252 28.7269 18.819 28.4667C20.2368 27.7418 25.2494 22.6095 26.0236 21.2145C27.5014 18.5129 27.6885 15.5535 26.5529 12.8405C25.4173 10.1275 23.461 7.20069 20.2275 5.70794C16.994 4.2152 15.071 4.27299 7.92566 2.88574C13.2413 1.62777 19.8831 2.75096 23.735 4.52919C27.5869 6.30743 30.4316 9.04576 31.7844 12.2776C33.1372 15.5095 32.9143 19.0349 31.1538 22.2531Z" fill="url(#paint4_linear)"/>
<ellipse rx="3.0296" ry="3.02721" transform="matrix(0.793 0.609222 -0.611302 0.791398 23.4523 4.88907)" fill="white"/>
</g>
<ellipse rx="1.9282" ry="1.92686" transform="matrix(0.793 0.609222 -0.611302 0.791398 23.8023 4.99729)" fill="url(#paint5_linear)"/>
<ellipse rx="0.550705" ry="0.550409" transform="matrix(0.792378 0.610031 -0.610493 0.792022 25.7556 2.5195)" fill="url(#paint6_linear)"/>
</g>
<defs>
<linearGradient id="paint0_linear" x1="3.27981" y1="14.0315" x2="28.7187" y2="19.9777" gradientUnits="userSpaceOnUse">
<stop stop-color="#AA076B"/>
<stop offset="1" stop-color="#61045F"/>
</linearGradient>
<linearGradient id="paint1_linear" x1="3.29155" y1="14.0514" x2="28.7304" y2="19.9976" gradientUnits="userSpaceOnUse">
<stop stop-color="#AA076B"/>
<stop offset="1" stop-color="#61045F"/>
</linearGradient>
<linearGradient id="paint2_linear" x1="2.85547" y1="30.1883" x2="9.56998" y2="27.2312" gradientUnits="userSpaceOnUse">
<stop stop-color="#D971BD"/>
<stop offset="1" stop-color="#940768" stop-opacity="0"/>
</linearGradient>
<linearGradient id="paint3_linear" x1="21.0996" y1="2.08851" x2="10.6669" y2="23.5671" gradientUnits="userSpaceOnUse">
<stop stop-color="#670460"/>
<stop offset="1" stop-color="#61045F" stop-opacity="0"/>
</linearGradient>
<linearGradient id="paint4_linear" x1="9.98314" y1="0.00544666" x2="16.9005" y2="30.5807" gradientUnits="userSpaceOnUse">
<stop stop-color="#930667"/>
<stop offset="1" stop-color="#61045F" stop-opacity="0"/>
</linearGradient>
<linearGradient id="paint5_linear" x1="4.47062e-09" y1="1.92687" x2="5.82064" y2="1.62629" gradientUnits="userSpaceOnUse">
<stop stop-color="#AA076B"/>
<stop offset="1" stop-color="#61045F"/>
</linearGradient>
<linearGradient id="paint6_linear" x1="1.27684e-09" y1="0.550409" x2="1.66241" y2="0.464577" gradientUnits="userSpaceOnUse">
<stop stop-color="#AA076B"/>
<stop offset="1" stop-color="#61045F"/>
</linearGradient>
<clipPath id="clip0">
<rect width="32" height="32" fill="white"/>
</clipPath>
</defs>
</svg>
